PathFileType	4	(X/Y/Z)	D:/Ayumi_testdata/Ayumi_25_09_2024/25-09-2024/conventional_dl_80kg01/conventional_dl_80kg01.trc	
DataRate	CameraRate	NumFrames	NumMarkers	Units	OrigDataRate	OrigDataStartFrame	OrigNumFrames	
200.00	200.00	4	55	mm	200.00	2128	2620	
Frame#	Time	RSACR			LSACR			USACR			LBAR			RBAR			RHEE			RMT1			RMT5			RMT2			LHEE			LMT1			LMT5			LMT2			LMMAL			LLMAL			LTIB4			LTIB3			LTIB2			LTIB1			RMMAL			RLMAL			RTIB1			RTIB3			RTIB2			RTHI			RTHI4			RTHI3			RTHI2			LTHI1			LTHI4			LTHI3			LTHI2			FHD			LBHD			RBHD			C7			T10			CLAV			LSHO			RSHO			LRAD			LUL			LRFIN			RRAD			RUL			RUFIN			LMUPA			LDUPA			LUUPA			RMUPA			RUUPA			RDUPA			*52			*53			*54			
		X1	Y1	Z1	X2	Y2	Z2	X3	Y3	Z3	X4	Y4	Z4	X5	Y5	Z5	X6	Y6	Z6	X7	Y7	Z7	X8	Y8	Z8	X9	Y9	Z9	X10	Y10	Z10	X11	Y11	Z11	X12	Y12	Z12	X13	Y13	Z13	X14	Y14	Z14	X15	Y15	Z15	X16	Y16	Z16	X17	Y17	Z17	X18	Y18	Z18	X19	Y19	Z19	X20	Y20	Z20	X21	Y21	Z21	X22	Y22	Z22	X23	Y23	Z23	X24	Y24	Z24	X25	Y25	Z25	X26	Y26	Z26	X27	Y27	Z27	X28	Y28	Z28	X29	Y29	Z29	X30	Y30	Z30	X31	Y31	Z31	X32	Y32	Z32	X33	Y33	Z33	X34	Y34	Z34	X35	Y35	Z35	X36	Y36	Z36	X37	Y37	Z37	X38	Y38	Z38	X39	Y39	Z39	X40	Y40	Z40	X41	Y41	Z41	X42	Y42	Z42	X43	Y43	Z43	X44	Y44	Z44	X45	Y45	Z45	X46	Y46	Z46	X47	Y47	Z47	X48	Y48	Z48	X49	Y49	Z49	X50	Y50	Z50	X51	Y51	Z51	X52	Y52	Z52	X53	Y53	Z53	X54	Y54	Z54	X55	Y55	Z55	

1966	9.825	468.84875	961.84003	752.33594	469.40878	903.19727	755.90594	451.55850	932.19012	758.15424	222.73802	-195.52110	259.45157	195.79616	2025.26624	242.79463	274.11255	1369.08411	32.15370	120.67422	1491.67200	43.67445	192.29402	1532.71655	28.89965	152.56454	1517.65479	42.11249	307.98224	485.84525	41.41874	146.53865	379.17365	49.71711	213.76395	334.29303	29.34921	173.76964	350.55649	46.52546	248.77798	494.44315	71.65495	291.91663	425.53186	71.02472	307.86963	467.99609	207.19974	294.38831	466.47208	271.37195	332.30121	498.38205	260.24548	327.68921	501.93338	302.36603	225.45547	1371.29053	65.66319	271.94876	1429.53394	68.69404	276.67865	1387.69104	313.78644	284.83063	1395.78601	249.47449	318.30304	1364.55139	295.95105	475.97406	1135.80835	644.34229	412.55649	1229.78918	536.35016	377.44986	1223.71362	573.09424	434.02969	1191.97107	585.91290	488.53494	727.49158	645.73187	381.36652	635.57703	577.21692	422.34723	636.42322	545.44501	430.16891	672.27057	600.60718	-160.34869	777.11749	948.84137	-119.03049	836.14746	1036.31946	-143.38652	953.20160	999.51373	59.12774	899.56537	933.94940	402.74841	929.04395	780.89380	43.42681	902.18170	793.10046	62.96770	726.52148	861.54773	28.02558	1050.79163	831.32727	173.60367	659.60486	336.86487	172.98024	700.68323	336.74048	171.02144	716.20709	251.48982	170.02107	1141.01599	326.77475	169.51518	1189.50916	328.43356	164.57349	1130.73865	244.54015	136.55998	677.29828	622.37396	108.09666	715.13245	637.79425	109.55747	693.56311	694.92755	106.58453	1124.36658	605.45325	84.85918	1104.80945	660.81165	102.22176	1077.57544	587.76563									 
1967	9.830	468.92136	961.84119	752.32922	469.48206	903.20966	755.93671	451.64316	932.20319	758.15143	222.99905	-195.27849	260.07669	196.56102	2025.64136	243.97972	274.42776	1369.07861	32.12962	120.84167	1491.80652	43.71604	192.40491	1532.85657	28.79216	152.72044	1517.77124	42.09868	307.99326	485.81189	41.41556	146.57391	379.16980	49.74379	213.77179	334.27036	29.35192	173.79700	350.54178	46.54302	248.77692	494.41046	71.70809	291.97113	425.38150	71.01460	307.80640	468.00391	207.15761	294.42889	466.34299	271.41287	332.29257	498.35599	260.29044	327.65265	501.86490	302.38855	225.64748	1371.50317	65.75780	272.18658	1429.53369	68.54966	277.37253	1387.65076	314.12219	285.01395	1396.01697	249.86255	318.51926	1364.23987	295.85410	476.12576	1135.65234	644.21521	412.85715	1229.82739	536.25378	377.74493	1223.76343	573.04340	434.25677	1191.96167	585.81177	488.57803	727.42914	645.75922	381.46872	635.37280	577.23352	422.44141	636.27295	545.42395	430.18860	671.86450	600.61786	-160.66925	777.35736	948.31842	-119.65857	836.33289	1035.99243	-143.58514	953.43250	999.04156	59.20827	899.58014	934.36554	402.86124	929.07007	781.01215	43.50931	902.40283	793.61108	63.02580	726.66278	861.94342	28.11071	1050.94861	832.15173	173.76970	659.60266	337.23669	173.16975	700.67944	337.12589	171.74567	716.33423	251.81566	170.00282	1141.37817	327.37775	169.88403	1189.92041	328.92523	164.99968	1130.92017	244.96901	136.34431	677.01611	622.87170	107.90122	715.06256	638.17859	109.39349	693.49799	695.35364	106.54902	1124.88794	606.43701	84.93172	1105.17700	661.85150	102.32542	1078.10156	588.71558									 
1968	9.835	469.11267	961.65729	752.27631	469.54840	903.25006	755.98254	451.73145	932.21002	758.22278	222.83582	-194.93845	260.59247	197.15257	2025.47327	243.86974	274.40771	1369.12598	32.14486	121.10725	1492.11865	43.75625	192.56873	1532.98474	28.72671	152.87074	1517.97168	42.12266	308.01108	485.77246	41.40006	146.60103	379.13568	49.76221	213.78648	334.24155	29.34232	173.85422	350.53073	46.58302	248.78329	494.37759	71.75978	292.00714	425.82172	70.90826	307.82599	467.93143	207.17424	294.40186	466.33029	271.37848	332.20953	498.33792	260.24857	327.52496	501.71255	302.49887	225.69554	1371.67725	65.91370	272.27747	1429.64404	68.45686	278.18469	1387.76208	314.39774	284.75989	1395.62427	250.10399	319.20041	1364.27991	295.87021	476.33591	1135.49536	644.11072	413.18680	1229.75513	536.16650	378.09976	1223.86218	573.02985	434.56314	1191.93262	585.75604	488.60138	727.40369	645.75232	381.60873	635.18555	577.26495	422.49783	636.15027	545.39117	430.29364	671.82843	600.55933	-161.02876	777.58344	947.87421	-120.34373	836.44592	1035.74744	-143.75739	953.62653	998.69696	59.33530	899.63318	934.78058	402.95544	929.08130	781.15094	43.49467	902.61102	794.16083	63.10823	726.89868	862.26550	28.66837	1050.87207	832.87329	173.96873	659.67316	337.48010	173.33794	700.74561	337.44647	171.79892	716.39081	252.03447	170.37701	1141.59253	327.93604	170.04613	1190.10571	329.56345	165.20181	1131.04041	245.58974	136.14819	676.78455	623.29797	107.84274	714.92407	638.59467	109.35305	693.32465	695.78638	106.61913	1125.61108	607.54987	85.12186	1105.78271	662.94470	102.33517	1078.86963	589.70087									 
1969	9.840	469.22220	961.68457	752.35754	469.82736	903.39319	756.05499	451.81528	932.22156	758.34198	222.94142	-195.01108	260.79257	197.28479	2025.78760	244.53059	274.41391	1369.16455	32.16643	121.20955	1492.22070	43.75895	192.64658	1533.05188	28.72411	152.92612	1518.03650	42.12875	308.02832	485.76535	41.42228	146.64337	379.12222	49.77710	213.80058	334.24503	29.37043	173.88867	350.51303	46.60114	248.61855	494.38840	71.97972	292.06793	425.76355	70.97141	307.73105	467.99820	207.17981	294.38879	466.29431	271.44507	332.14682	498.36234	260.28625	327.47827	501.71924	302.52884	225.68353	1371.79053	65.97612	272.40778	1429.71594	68.52284	279.00195	1387.76086	314.63452	285.33255	1395.57898	250.31487	320.09732	1364.19299	296.12387	476.56754	1135.33423	644.04095	413.56567	1229.82751	536.19818	378.52744	1223.96045	573.07129	434.90170	1191.94067	585.73541	488.68616	727.35706	645.76703	381.72977	635.03754	577.33539	422.58508	636.06256	545.40686	430.43210	671.98602	600.43555	-161.44127	777.77240	947.53229	-121.09731	836.43512	1035.65674	-143.91626	953.78491	998.57770	59.50181	899.70959	935.25360	403.05878	929.07959	781.33142	43.53395	902.86426	794.74420	63.17203	727.14746	862.63342	28.74663	1051.28516	833.90479	174.12469	659.56439	337.71677	173.52837	700.61633	337.68115	171.90405	716.43500	252.62375	170.81326	1141.86108	328.90375	170.74068	1190.42615	330.41888	165.30899	1131.18262	246.67625	136.05220	676.53137	623.70270	107.77831	714.68298	638.98260	109.23275	693.17566	696.20844	106.89498	1126.35388	608.59442	85.40162	1106.55261	663.96716	102.37286	1079.69446	590.68549									 
